# Blender v2.79 (sub 0) OBJ File: 'Wii Play Tank.blend'
# www.blender.org
mtllib Wii Play Tank Tracks.mtl
o Plane.001
v -16.000000 1.000000 17.500000
v 16.000000 1.000000 17.500000
v -16.000000 1.000000 -17.500000
v 16.000000 1.000000 -17.500000
v -16.000000 3.964466 17.500000
v -16.000000 5.500000 15.964466
v 16.000000 5.500000 15.964466
v 16.000000 3.964466 17.500000
v -16.000000 5.500000 -15.964466
v -16.000000 3.964466 -17.500000
v 16.000000 3.964466 -17.500000
v 16.000000 5.500000 -15.964466
v -16.000000 1.000000 -20.000000
v -16.000000 1.000000 20.000000
v 16.000000 1.000000 20.000000
v 16.000000 1.000000 -20.000000
v -16.000000 8.000000 17.000000
v -16.000000 5.000000 20.000000
v 16.000000 5.000000 20.000000
v 16.000000 8.000000 17.000000
v 16.000000 8.000000 -17.000000
v 16.000000 5.000000 -20.000000
v -16.000000 5.000000 -20.000000
v -16.000000 8.000000 -17.000000
v 16.000000 -4.000000 -20.000000
v -6.000000 1.000000 17.500000
v -6.000000 1.000000 -17.500000
v -6.000000 3.964466 17.500000
v -6.000000 5.500000 15.964466
v -6.000000 5.500000 -15.964466
v -6.000000 3.964466 -17.500000
v 6.000000 1.000000 17.500000
v 6.000000 1.000000 -17.500000
v 6.000000 5.500000 15.964466
v 6.000000 3.964466 17.500000
v 6.000000 3.964466 -17.500000
v 6.000000 5.500000 -15.964466
v -7.001591 0.987913 16.446918
v -7.001591 1.670729 16.379665
v -7.001591 2.327305 16.180496
v -7.001591 2.932409 15.857060
v -7.001591 3.462787 15.421790
v -7.001591 3.898057 14.891412
v -7.001591 4.221491 14.286308
v -7.001593 4.420661 13.629733
v -7.001593 4.487913 12.946917
v -16.001591 -0.956579 15.857063
v -16.001591 -1.486958 15.421794
v -16.001591 -1.922228 14.891417
v -16.001591 -2.245664 14.286313
v -16.001593 -2.444835 13.629737
v -16.001593 -2.512087 12.946921
v -16.001593 4.487913 12.946918
v -16.001593 4.420661 13.629734
v -16.001591 4.221491 14.286309
v -16.001591 3.898057 14.891413
v -16.001591 3.462787 15.421791
v -16.001591 2.932409 15.857061
v -16.001591 2.327305 16.180498
v -16.001591 1.670729 16.379667
v -16.001591 0.987913 16.446920
v -7.001593 -2.512087 12.946920
v -7.001593 -2.444835 13.629736
v -7.001591 -2.245664 14.286312
v -7.001591 -1.922228 14.891416
v -7.001591 -1.486958 15.421793
v -7.001591 -0.956579 15.857062
v -7.001591 -0.351474 16.180498
v -7.001591 0.305102 16.379667
v -7.001595 0.987913 -16.576031
v -7.001595 1.670729 -16.508781
v -7.001595 2.327305 -16.309610
v -7.001595 2.932409 -15.986176
v -7.001595 3.462787 -15.550906
v -7.001595 3.898057 -15.020529
v -7.001595 4.221491 -14.415425
v -7.001593 4.420661 -13.758849
v -7.001593 4.487913 -13.076034
v -7.001593 -2.512087 -13.076036
v -7.001593 -2.444834 -13.758853
v -7.001595 -2.245663 -14.415429
v -7.001595 -1.922228 -15.020533
v -7.001595 -1.486957 -15.550910
v -7.001595 -0.956579 -15.986179
v -7.001595 -0.351474 -16.309612
v -7.001595 0.305102 -16.508781
v -16.001591 -0.351474 16.180500
v -16.001591 0.305102 16.379669
v -16.001595 0.987913 -16.576029
v -16.001595 1.670729 -16.508780
v -16.001595 2.327305 -16.309608
v -16.001595 2.932409 -15.986176
v -16.001595 3.462787 -15.550905
v -16.001595 3.898057 -15.020528
v -16.001595 4.221491 -14.415424
v -16.001593 4.420661 -13.758848
v -16.001593 4.487913 -13.076033
v -16.001593 -2.512087 -13.076035
v -16.001593 -2.444834 -13.758852
v -16.001595 -2.245663 -14.415428
v -16.001595 -1.922228 -15.020532
v -16.001595 -1.486957 -15.550909
v -16.001595 -0.956579 -15.986178
v -16.001595 -0.351474 -16.309610
v -16.001595 0.305102 -16.508780
v 15.998409 0.987913 16.446918
v 15.998409 1.670729 16.379665
v 15.998409 2.327305 16.180496
v 15.998409 2.932409 15.857060
v 15.998409 3.462787 15.421790
v 15.998409 3.898057 14.891412
v 15.998409 4.221491 14.286308
v 15.998407 4.420661 13.629733
v 15.998407 4.487913 12.946917
v 6.998409 -0.956579 15.857063
v 6.998409 -1.486958 15.421794
v 6.998409 -1.922228 14.891417
v 6.998409 -2.245664 14.286313
v 6.998407 -2.444835 13.629737
v 6.998407 -2.512087 12.946921
v 6.998407 4.487913 12.946918
v 6.998407 4.420661 13.629734
v 6.998409 4.221491 14.286309
v 6.998409 3.898057 14.891413
v 6.998409 3.462787 15.421791
v 6.998409 2.932409 15.857061
v 6.998409 2.327305 16.180498
v 6.998409 1.670729 16.379667
v 6.998409 0.987913 16.446920
v 15.998407 -2.512087 12.946920
v 15.998407 -2.444835 13.629736
v 15.998409 -2.245664 14.286312
v 15.998409 -1.922228 14.891416
v 15.998409 -1.486958 15.421793
v 15.998409 -0.956579 15.857062
v 15.998409 -0.351474 16.180498
v 15.998409 0.305102 16.379667
v 15.998405 0.987913 -16.576031
v 15.998405 1.670729 -16.508781
v 15.998405 2.327305 -16.309610
v 15.998405 2.932409 -15.986176
v 15.998405 3.462787 -15.550906
v 15.998405 3.898057 -15.020529
v 15.998405 4.221491 -14.415425
v 15.998407 4.420661 -13.758849
v 15.998407 4.487913 -13.076034
v 15.998407 -2.512087 -13.076036
v 15.998407 -2.444834 -13.758853
v 15.998405 -2.245663 -14.415429
v 15.998405 -1.922228 -15.020533
v 15.998405 -1.486957 -15.550910
v 15.998405 -0.956579 -15.986179
v 15.998405 -0.351474 -16.309612
v 15.998405 0.305102 -16.508781
v 6.998409 -0.351474 16.180500
v 6.998409 0.305102 16.379669
v 6.998405 0.987913 -16.576029
v 6.998405 1.670729 -16.508780
v 6.998405 2.327305 -16.309608
v 6.998405 2.932409 -15.986176
v 6.998405 3.462787 -15.550905
v 6.998405 3.898057 -15.020528
v 6.998405 4.221491 -14.415424
v 6.998407 4.420661 -13.758848
v 6.998407 4.487913 -13.076033
v 6.998407 -2.512087 -13.076035
v 6.998407 -2.444834 -13.758852
v 6.998405 -2.245663 -14.415428
v 6.998405 -1.922228 -15.020532
v 6.998405 -1.486957 -15.550909
v 6.998405 -0.956579 -15.986178
v 6.998405 -0.351474 -16.309610
v 6.998405 0.305102 -16.508780
v 6.998406 1.486309 -6.999996
v 6.998408 1.486306 7.000001
v 6.998408 3.486309 7.000002
v 6.998407 3.486312 -6.999998
v -7.001594 3.486311 -6.999998
v -7.001593 3.486310 7.000001
v -7.001592 1.486306 7.000001
v -7.001594 1.486309 -6.999999
v 6.000000 3.486309 7.000002
v -6.000002 3.486310 7.000001
v 6.000000 3.486312 -6.999998
v -6.000000 3.486311 -6.999998
v 12.032862 4.487913 -6.999997
v 12.032862 4.487913 7.000001
v -6.000000 3.964466 -6.999998
v -6.000000 3.964466 7.000002
v 6.000000 3.964466 7.000004
v 6.000000 3.964466 -6.999997
vn 0.0000 0.0000 1.0000
vn 0.0000 0.0000 -1.0000
vn 0.0000 1.0000 0.0000
vn 0.0000 0.7071 0.7071
vn 0.0000 0.7071 -0.7071
vn -1.0000 0.0000 0.0000
vn 1.0000 0.0000 0.0000
vn 0.0000 -0.7071 0.7071
vn 0.0000 -1.0000 0.0000
vn 0.0000 -0.7071 -0.7071
vn -0.0000 0.8819 -0.4714
vn 0.0000 -0.9952 0.0980
vn -0.0000 0.9569 -0.2903
vn 0.0000 -0.9569 0.2903
vn -0.0000 0.9952 -0.0980
vn 0.0000 -0.8819 0.4714
vn 0.0000 -0.9952 -0.0980
vn 0.0000 0.0980 0.9952
vn 0.0000 -0.7730 0.6344
vn -0.0000 -0.9569 -0.2903
vn 0.0000 0.2903 0.9569
vn 0.0000 -0.6344 0.7730
vn -0.0000 -0.8819 -0.4714
vn 0.0000 0.4714 0.8819
vn 0.0000 -0.4714 0.8819
vn 0.0000 -0.7730 -0.6344
vn 0.0000 0.6344 0.7730
vn 0.0000 -0.2903 0.9569
vn -0.0000 -0.6344 -0.7730
vn 0.0000 0.7730 0.6344
vn 0.0000 -0.0980 0.9952
vn -0.0000 -0.4714 -0.8819
vn 0.0000 0.8819 0.4714
vn -0.0000 0.0980 -0.9952
vn -0.0000 -0.2903 -0.9569
vn 0.0000 0.9569 0.2903
vn 0.0000 0.2903 -0.9569
vn -0.0000 -0.0980 -0.9952
vn 0.0000 0.9952 0.0980
vn -0.0000 0.4714 -0.8819
vn 0.0000 0.6344 -0.7730
vn 0.0000 0.7730 -0.6344
usemtl Material.001
s off
f 14//1 15//1 19//1 18//1
f 16//2 13//2 23//2 22//2
f 17//3 20//3 21//3 24//3
f 18//4 19//4 20//4 17//4
f 22//5 23//5 24//5 21//5
f 6//6 5//6 18//6 17//6
f 8//7 7//7 20//7 19//7
f 12//7 11//7 22//7 21//7
f 10//6 9//6 24//6 23//6
f 3//6 10//6 23//6 13//6
f 5//6 1//6 14//6 18//6
f 9//6 6//6 17//6 24//6
f 7//7 12//7 21//7 20//7
f 2//7 8//7 19//7 15//7
f 11//7 4//7 16//7 22//7
f 1//2 5//2 28//2 26//2
f 9//8 10//8 31//8 30//8
f 6//9 9//9 30//9 29//9
f 10//1 3//1 27//1 31//1
f 5//10 6//10 29//10 28//10
f 7//10 8//10 35//10 34//10
f 8//2 2//2 32//2 35//2
f 11//8 12//8 37//8 36//8
f 4//1 11//1 36//1 33//1
f 12//9 7//9 34//9 37//9
f 31//9 36//9 191//9 188//9
f 35//7 190//7 191//7 36//7 37//7 34//7
f 29//6 30//6 31//6 188//6 189//6 28//6
f 31//1 27//1 33//1 36//1
f 28//2 35//2 32//2 26//2
f 15//9 14//9 1//9 26//9 32//9 2//9
f 16//9 4//9 33//9 27//9 3//9 13//9
f 39//7 38//7 69//7 68//7 67//7 66//7 65//7 64//7 63//7 62//7 79//7 80//7 81//7 82//7 83//7 84//7 85//7 86//7 70//7 71//7 181//7 180//7 179//7 43//7 42//7 41//7 40//7
f 60//6 59//6 58//6 57//6 56//6 55//6 54//6 53//6 97//6 96//6 95//6 94//6 93//6 92//6 91//6 90//6 89//6 105//6 104//6 103//6 102//6 101//6 100//6 99//6 98//6 52//6 51//6 50//6 49//6 48//6 47//6 87//6 88//6 61//6
f 46//3 78//3 97//3 53//3
f 76//11 75//11 94//11 95//11
f 62//12 63//12 51//12 52//12
f 77//13 76//13 95//13 96//13
f 63//14 64//14 50//14 51//14
f 78//15 77//15 96//15 97//15
f 64//16 65//16 49//16 50//16
f 80//17 79//17 98//17 99//17
f 38//18 39//18 60//18 61//18
f 65//19 66//19 48//19 49//19
f 81//20 80//20 99//20 100//20
f 39//21 40//21 59//21 60//21
f 66//22 67//22 47//22 48//22
f 82//23 81//23 100//23 101//23
f 40//24 41//24 58//24 59//24
f 67//25 68//25 87//25 47//25
f 83//26 82//26 101//26 102//26
f 41//27 42//27 57//27 58//27
f 68//28 69//28 88//28 87//28
f 84//29 83//29 102//29 103//29
f 42//30 43//30 56//30 57//30
f 69//31 38//31 61//31 88//31
f 85//32 84//32 103//32 104//32
f 43//33 44//33 55//33 56//33
f 71//34 70//34 89//34 90//34
f 86//35 85//35 104//35 105//35
f 44//36 45//36 54//36 55//36
f 72//37 71//37 90//37 91//37
f 70//38 86//38 105//38 89//38
f 45//39 46//39 53//39 54//39
f 73//40 72//40 91//40 92//40
f 74//41 73//41 92//41 93//41
f 79//9 62//9 52//9 98//9
f 75//42 74//42 93//42 94//42
f 107//7 106//7 137//7 136//7 135//7 134//7 133//7 132//7 131//7 130//7 147//7 148//7 149//7 150//7 151//7 152//7 153//7 154//7 138//7 139//7 140//7 141//7 142//7 143//7 144//7 145//7 146//7 114//7 113//7 112//7 111//7 110//7 109//7 108//7
f 128//6 127//6 126//6 125//6 124//6 176//6 175//6 174//6 177//6 162//6 161//6 160//6 159//6 158//6 157//6 173//6 172//6 171//6 170//6 169//6 168//6 167//6 166//6 120//6 119//6 118//6 117//6 116//6 115//6 155//6 156//6 129//6
f 114//3 146//3 186//3 187//3 121//3
f 144//11 143//11 162//11 163//11
f 130//12 131//12 119//12 120//12
f 145//13 144//13 163//13 164//13
f 131//14 132//14 118//14 119//14
f 146//15 145//15 164//15 165//15
f 132//16 133//16 117//16 118//16
f 148//17 147//17 166//17 167//17
f 106//18 107//18 128//18 129//18
f 133//19 134//19 116//19 117//19
f 149//20 148//20 167//20 168//20
f 107//21 108//21 127//21 128//21
f 134//22 135//22 115//22 116//22
f 150//23 149//23 168//23 169//23
f 108//24 109//24 126//24 127//24
f 135//25 136//25 155//25 115//25
f 151//26 150//26 169//26 170//26
f 109//27 110//27 125//27 126//27
f 136//28 137//28 156//28 155//28
f 152//29 151//29 170//29 171//29
f 110//30 111//30 124//30 125//30
f 137//31 106//31 129//31 156//31
f 153//32 152//32 171//32 172//32
f 111//33 112//33 123//33 124//33
f 139//34 138//34 157//34 158//34
f 154//35 153//35 172//35 173//35
f 112//36 113//36 122//36 123//36
f 140//37 139//37 158//37 159//37
f 138//38 154//38 173//38 157//38
f 113//39 114//39 121//39 122//39
f 141//40 140//40 159//40 160//40
f 142//41 141//41 160//41 161//41
f 147//9 130//9 120//9 166//9
f 143//42 142//42 161//42 162//42
f 162//6 177//6 176//6 124//6 123//6 122//6 121//6 165//6 164//6 163//6
f 176//3 177//3 184//3 182//3
f 175//1 176//1 182//1 183//1 179//1 180//1
f 43//7 179//7 178//7 181//7 71//7 72//7 73//7 74//7 75//7 76//7 77//7 78//7 46//7 45//7 44//7
f 174//9 175//9 180//9 181//9
f 177//2 174//2 181//2 178//2 185//2 184//2
f 121//3 187//3 186//3 146//3 165//3
f 183//3 185//3 178//3 179//3
f 182//1 190//1 189//1 183//1
f 189//9 190//9 35//9 28//9
f 185//2 188//2 191//2 184//2
f 183//6 189//6 188//6 185//6
f 184//7 191//7 190//7 182//7
